<svg xmlns="http://www.w3.org/2000/svg" viewBox="0 0 64 64" width="64" height="64">
  <defs>
    <linearGradient id="brand" x1="0" y1="0" x2="1" y2="1">
      <stop offset="0" stop-color="#6366f1"/>
      <stop offset="1" stop-color="#0ea5e9"/>
    </linearGradient>
  </defs>
  <rect width="64" height="64" rx="16" fill="url(#brand)"/>
  <g transform="translate(14,14) scale(1.5)" fill="#ffffff">
    <path d="M20 9V7c0-1.1-.9-2-2-2h-3c0-1.66-1.34-3-3-3S9 3.34 9 5H6c-1.1 0-2 .9-2 2v2c-1.66 0-3 1.34-3 3s1.34 3 3 3v4c0 1.1.9 2 2 2h12c1.1 0 2-.9 2-2v-4c1.66 0 3-1.34 3-3s-1.34-3-3-3zM7.5 11.5C7.5 10.67 8.17 10 9 10s1.5.67 1.5 1.5S9.83 13 9 13s-1.5-.67-1.5-1.5zM16 17H8v-2h8v2zm-1-4c-.83 0-1.5-.67-1.5-1.5S14.17 10 15 10s1.5.67 1.5 1.5S15.83 13 15 13z"/>
  </g>
</svg>
